<svg width="245" height="71" viewBox="0 0 245 71" fill="none" xmlns="http://www.w3.org/2000/svg">
<path d="M0.351601 41.2936C11.4455 41.4306 15.4418 41.4798 20.7241 41.5448C22.7571 41.5699 24.9807 41.5972 27.8727 41.6328C29.6344 41.6545 31.6443 41.6793 34.0103 41.7084C35.3797 41.7253 36.8685 41.7436 38.4975 41.7637C39.0226 41.7702 39.5312 41.7764 40.024 41.7825C42.5318 41.8134 44.6331 41.8393 46.44 41.8616C48.3158 41.8847 49.8743 41.9039 51.2404 41.9207C58.6765 42.0124 60.4158 42.0338 76.6447 42.2338C76.9258 19.4274 60.0758 0.729753 39.0064 0.47011C17.9405 0.210511 0.63448 18.4863 0.353415 41.2941L0.351601 41.2936ZM55.6023 23.0346C56.7169 23.7901 57.0495 25.3793 56.3499 26.5834C53.7052 31.1355 52.0008 36.2599 51.2404 41.9207C45.2628 41.8471 50.7186 55.2154 52.2246 62.8139C52.5009 64.2026 51.6817 65.5734 50.3987 65.8732C49.1152 66.1745 47.8504 65.2944 47.576 63.9022C46 55.9568 51.9686 41.9297 46.44 41.8616C47.2445 35.2307 49.2069 29.211 52.3221 23.8479C53.0249 22.6434 54.4918 22.2768 55.6032 23.0352L55.6023 23.0346ZM45.2793 17.8524C46.6675 18.8036 47.0823 20.7903 46.204 22.293C43.0217 27.7397 40.9155 34.6228 40.024 41.7825C32.9621 41.6955 39.4716 56.7233 41.2516 63.3858C41.7057 65.0944 40.7971 66.8818 39.2206 67.3792C37.6413 67.8726 35.9951 66.8921 35.5377 65.1865C33.5763 57.8415 41.1195 41.796 34.0103 41.7084C34.9524 33.3835 37.3934 25.3421 41.1779 18.8627C42.0575 17.3595 43.8946 16.9037 45.2797 17.8529L45.2793 17.8524ZM34.4688 17.2852C30.7054 23.949 28.5996 32.83 27.8727 41.6328C19.9649 41.5355 27.7772 58.8803 29.4664 65.204C30.0129 67.2514 28.9222 69.3961 27.0297 69.9912C25.1362 70.5864 23.1584 69.4109 22.6105 67.3619C20.7225 60.2957 28.9764 41.6464 20.7241 41.5448C21.5 31.424 23.9368 21.1394 28.3806 13.2678C29.4095 11.4448 31.6066 10.8697 33.2863 11.9784C34.9684 13.0841 35.498 15.4678 34.4688 17.2847L34.4688 17.2852Z" fill="#42B4BF"/>
<path d="M108.195 49.836H94.3028L92.085 56.2474C92.0366 56.3872 91.9049 56.4809 91.757 56.4809H85.1518C84.9115 56.4809 84.744 56.2428 84.8252 56.0167L97.1187 21.7873C97.1682 21.6495 97.2988 21.5576 97.4453 21.5576H105.102C105.249 21.5576 105.379 21.6495 105.429 21.7873L117.722 56.0167C117.804 56.2428 117.636 56.4809 117.396 56.4809H110.741C110.593 56.4809 110.461 56.3872 110.413 56.2474L108.195 49.836ZM106.296 44.2403L101.249 29.6514L96.2017 44.2403H106.296Z" fill="#42B4BF"/>
<path d="M115.788 41.5618C116.143 37.376 117.61 35.2101 117.711 35.0642C117.715 35.0585 117.719 35.0536 117.722 35.0477C117.831 34.8779 119.545 32.2267 121.447 31.0663C123.413 29.8672 125.017 29.0963 127.383 29.0963C129.348 29.0963 131.227 29.3461 132.726 30.1122C134.258 30.8449 135.345 31.9275 136.277 33.0932V29.8429C136.277 29.6513 136.433 29.496 136.624 29.496H142.974C143.167 29.496 143.322 29.6526 143.321 29.845L143.118 63.4222C143.117 63.613 142.962 63.767 142.771 63.767H136.783C136.591 63.767 136.436 63.6117 136.436 63.4201V52.9246C135.395 54.0522 134.007 55.1798 132.271 55.8737C130.507 56.5794 128.625 56.6942 126.979 56.5677C124.724 56.3942 123.412 55.634 122.381 55.0931C118.942 53.2879 117.378 49.9494 117.35 49.8895C117.349 49.8877 117.35 49.8899 117.349 49.8881C117.321 49.8285 115.423 45.866 115.788 41.5618ZM136.543 42.6894C136.543 40.9907 136.201 39.9318 135.502 38.6994C134.802 37.467 134.032 36.5566 132.899 35.9237C131.8 35.2909 130.695 34.9696 129.429 34.9696C128.301 35.0563 127.607 35.1431 126.393 35.7502C125.293 36.3831 124.403 37.12 123.703 38.3524C123.004 39.5515 122.575 40.9907 122.575 42.6894C122.575 44.3881 122.83 45.7606 123.53 47.0263C124.229 48.2587 125.033 49.1691 126.132 49.802C127.265 50.4348 128.457 50.6694 129.689 50.6694C130.955 50.6694 131.973 50.2614 133.073 49.6285C134.205 48.9957 134.889 48.0853 135.589 46.8529C136.288 45.6205 136.543 44.3881 136.543 42.6894Z" fill="#42B4BF"/>
<path d="M171.43 28.7285C171.621 28.7285 171.777 28.8839 171.777 29.0755V56.0604C171.777 56.252 171.621 56.4074 171.43 56.4074H165.06C164.875 56.4074 164.723 56.2631 164.713 56.0788L164.652 54.9196C163.678 55.7307 161.567 56.1626 161.297 56.2152C161.277 56.219 161.259 56.224 161.241 56.2306C159.587 56.8242 156.418 56.5683 156.41 56.5677L156.409 56.5676C153.459 56.3217 151.283 55.1472 151.052 55.0179C151.037 55.0099 151.024 55.0035 151.009 54.997C150.776 54.8972 148.772 53.9831 147.223 51.465C147.217 51.4552 147.211 51.4469 147.205 51.4376C147.072 51.256 145.558 49.0926 145.392 44.9661V29.0755C145.392 28.8839 145.547 28.7285 145.739 28.7285H152.041C152.233 28.7285 152.388 28.8839 152.388 29.0755V43.9669C152.388 46.1652 152.938 47.8639 154.037 49.063C155.136 50.2288 156.635 50.8117 158.534 50.8117C160.467 50.8117 161.982 50.2288 163.082 49.063C164.181 47.8639 164.731 46.1652 164.731 43.9669V29.0755C164.731 28.8839 164.886 28.7285 165.078 28.7285H171.43Z" fill="#42B4BF"/>
<path d="M173.761 41.6485C174.138 37.5488 175.583 35.837 176.624 34.2757C178.846 31.541 181.703 30.3219 181.787 30.2864C181.79 30.2853 181.79 30.2851 181.793 30.284C184.69 29.1591 185.473 29.158 187.809 29.0715C187.813 29.0714 187.817 29.0713 187.821 29.0713C187.953 29.0717 190.276 29.0861 191.723 29.5881C191.73 29.5905 191.736 29.5926 191.743 29.5946C191.938 29.6497 194.854 30.4881 195.189 31.3265V29.9387C195.189 29.7471 195.345 29.5917 195.536 29.5917L201.349 29.5917C201.541 29.5917 201.696 29.7471 201.696 29.9387V55.7003C201.696 55.8919 201.541 56.0472 201.349 56.0472H195.471C195.307 56.0472 195.165 55.9323 195.131 55.7718L194.929 54.8114C193.715 55.6135 193.107 55.787 191.546 56.2207C189.397 56.8176 188.076 56.6544 186.254 56.5677C183.911 56.3942 181.772 55.4609 179.84 54.2618C177.941 53.0627 176.425 51.3807 175.293 49.2157C174.193 47.0173 173.501 44.4748 173.761 41.6485ZM195.189 43.2101C195.189 43.2029 195.189 43.1965 195.189 43.1893C195.188 41.4952 194.855 40.0499 194.19 38.8534C193.524 37.621 192.624 36.6884 191.492 36.0555C190.359 35.3894 189.143 35.0563 187.844 35.0563C186.544 35.0563 185.345 35.3727 184.246 36.0056C183.146 36.6384 182.247 37.5711 181.547 38.8035C180.881 40.0025 180.441 41.2842 180.441 42.9496C180.441 44.615 180.903 46.1076 181.569 47.3733C182.268 48.6057 183.419 49.3093 184.519 49.9755C186.035 50.7732 187.624 50.6905 187.869 50.6721C187.892 50.6704 187.913 50.6705 187.936 50.6725C189.666 50.8221 191.31 49.8099 191.449 49.7214C191.457 49.7168 191.463 49.7131 191.47 49.709C193.024 48.8503 193.739 47.5755 193.867 47.3288C193.882 47.3005 193.899 47.2747 193.919 47.2503C194.98 45.9808 195.176 43.3909 195.189 43.2101Z" fill="#42B4BF"/>
<path d="M221.56 35.4502C221.738 35.678 221.575 36.0104 221.286 36.0104H214.536V56.2207C214.536 56.4123 214.381 56.5677 214.189 56.5677H208.203C208.011 56.5677 207.856 56.4123 207.856 56.2207V36.0104L204.902 35.9766C204.712 35.9744 204.559 35.8197 204.559 35.6297V30.4591C204.559 30.2675 204.714 30.1122 204.906 30.1122H207.885V28.6175C207.885 26.0354 208.44 23.716 209.938 22.2189C212.655 19.5025 217.283 19.6107 221.057 20.7547C221.203 20.7991 221.301 20.9358 221.299 21.0888L221.222 26.1487C221.219 26.3623 221.025 26.5223 220.817 26.4746C219.526 26.1792 218.446 25.6426 216.965 25.8619C214.623 26.2089 214.623 27.857 214.536 28.2907C214.449 28.7243 214.472 29.4588 214.449 30.1122H217.399L221.56 35.4502Z" fill="#42B4BF"/>
<path d="M244.653 30.1989C244.897 30.1989 245.065 30.4445 244.976 30.672L234.056 58.6494C232.258 63.7847 226.913 66.5553 219.603 62.878C219.438 62.795 219.368 62.5947 219.444 62.4269L221.492 57.9532C221.577 57.768 221.806 57.6982 221.986 57.7937C227.334 60.6304 228.417 56.134 228.417 56.134L217.399 30.1122H224.534C224.678 30.1122 224.807 30.2011 224.858 30.3356L231.713 48.3274L237.965 30.4315C238.014 30.2922 238.145 30.1989 238.293 30.1989H244.653Z" fill="#42B4BF"/>
</svg>
